<svg xmlns="http://www.w3.org/2000/svg" width="401" height="347" fill="none" xmlns:v="https://vecta.io/nano"><mask id="A" mask-type="alpha" maskUnits="userSpaceOnUse" x="0" y="0" width="401" height="347"><path fill="#fff" d="M0 0h401v347H0z"/></mask><g mask="url(#A)"><path d="M30.986 83.142C53.168-11.511 256.934-35.053 256.934 33.188c0 115.41 152.458 121.611 141.503 187.757s-143.025-14.641-198.561 55.984S11.206 167.547 30.986 83.142z" fill="#54ffb9" fill-opacity=".5"/><path d="M180.88 331.884L16.47 47.116C7.972 32.398 18.594 14 35.59 14h328.82c16.996 0 27.618 18.398 19.12 33.116L219.12 331.884c-8.498 14.718-29.742 14.718-38.24 0z" stroke="#2a1468" stroke-width="8"/><circle cx="36.233" cy="36.078" r="27.121" fill="#fed049"/><circle cx="363.767" cy="36.078" r="27.121" fill="#fed049"/><circle cx="200" cy="319.802" r="27.121" fill="#fed049"/><path d="M194.754 312.499L36.374 37.313c-1.919-3.333.487-7.494 4.334-7.494h326.659c3.905 0 6.303 4.277 4.266 7.609L203.353 312.613c-1.981 3.239-6.706 3.176-8.599-.114z" fill="#fed049"/><circle cx="36.488" cy="36.488" r="19.605" stroke="#494771" stroke-width="6"/><path fill-rule="evenodd" d="M42.977 0h27a3 3 0 0 1 3 3v27a3 3 0 1 1-6 0V10.243L46.189 31.03c-.912-1.828-2.305-3.374-4.013-4.473L62.734 6H42.977a3 3 0 1 1 0-6zM26.558 42.177a11.25 11.25 0 0 1-1.79-6.107c0-6.242 5.06-11.302 11.302-11.302a11.25 11.25 0 0 1 6.107 1.79l-7.809 7.81-7.809 7.809zm0 0c1.099 1.708 2.645 3.101 4.473 4.013L10.243 66.977H30a3 3 0 1 1 0 6H3a3 3 0 0 1-3-3v-27a3 3 0 1 1 6 0v19.757l20.558-20.558zm4.473 4.013l7.579-7.579 7.579-7.579c.757 1.517 1.183 3.229 1.183 5.04 0 6.242-5.06 11.302-11.302 11.302-1.811 0-3.522-.426-5.04-1.183z" fill="#ff6d54"/><circle cx="364.488" cy="36.488" r="19.605" transform="rotate(270 364.488 36.488)" stroke="#2a1468" stroke-width="6"/><path fill-rule="evenodd" d="M328 30V3a3 3 0 0 1 3-3h27a3 3 0 0 1 0 6h-19.757l20.787 20.788c-1.828.912-3.374 2.305-4.472 4.013L334 10.243V30a3 3 0 1 1-6 0zm42.177 16.419c-1.762 1.133-3.858 1.79-6.107 1.79-6.242 0-11.303-5.06-11.303-11.302a11.25 11.25 0 0 1 1.791-6.107l7.809 7.81 7.81 7.809zm0 0a11.36 11.36 0 0 0 4.012-4.473l20.788 20.788V42.977a3 3 0 1 1 6 0v27a3 3 0 0 1-3 3h-27a3 3 0 1 1 0-6h19.757l-20.557-20.558zm4.012-4.473l-7.579-7.579-7.58-7.579c1.517-.757 3.229-1.183 5.04-1.183 6.242 0 11.302 5.06 11.302 11.302 0 1.811-.426 3.522-1.183 5.04z" fill="#ff6d54"/><circle cx="199.602" cy="319.602" r="19.605" transform="rotate(45 199.602 319.602)" stroke="#494771" stroke-width="6"/><path fill-rule="evenodd" d="M229.991 298.389l19.092 19.092a3 3 0 0 1 0 4.243l-19.092 19.092a3 3 0 0 1-4.242-4.243l13.97-13.971h-29.398c.648-1.937.756-4.015.326-6h29.072l-13.97-13.97a3 3 0 0 1 4.242-4.243zm-41.433 18.213c.444-2.046 1.462-3.993 3.052-5.584 4.414-4.413 11.57-4.413 15.984 0 1.591 1.591 2.608 3.538 3.053 5.584h-11.045-11.044zm0 0c-.431 1.985-.322 4.063.325 6h-29.398l13.971 13.971a3 3 0 1 1-4.243 4.243l-19.092-19.092a3 3 0 0 1 0-4.243l19.092-19.092a3 3 0 1 1 4.243 4.243l-13.971 13.97h29.073zm.325 6h10.719 10.719c-.537 1.609-1.446 3.12-2.727 4.4-4.414 4.414-11.57 4.414-15.984 0-1.28-1.28-2.189-2.791-2.727-4.4z" fill="#ff6d54"/><path fill-rule="evenodd" d="M201 225c53.572 0 97-43.428 97-97s-43.428-97-97-97-97 43.428-97 97 43.428 97 97 97zm-52.983-80.748c.557-.528.836-1.173.836-1.936v-25.432c0-.763-.264-1.393-.792-1.892a2.58 2.58 0 0 0-1.892-.792c-.822 0-1.496.264-2.024.792-.528.499-.792 1.129-.792 1.892v25.432c0 .763.249 1.408.748 1.936.528.499 1.188.748 1.98.748.733 0 1.378-.249 1.936-.748zm29.629-29.348c-.499-.469-1.144-.704-1.936-.704h-19.536c-.763 0-1.408.235-1.936.704-.499.469-.748 1.071-.748 1.804 0 .763.249 1.379.748 1.848s1.144.704 1.936.704h6.908v23.056a2.63 2.63 0 0 0 .792 1.936c.528.499 1.203.748 2.024.748s1.511-.249 2.068-.748c.557-.528.836-1.173.836-1.936V119.26h6.908c.792 0 1.437-.22 1.936-.66.499-.469.748-1.085.748-1.848s-.249-1.379-.748-1.848zm27.432 3.036c0-1.027-.455-1.775-1.364-2.244-2.23-1.144-4.65-1.716-7.26-1.716-3.022 0-5.735.675-8.14 2.024-2.406 1.32-4.298 3.168-5.676 5.544-1.35 2.376-2.024 5.06-2.024 8.052 0 3.373.718 6.248 2.156 8.624s3.358 4.18 5.764 5.412c2.405 1.203 5.045 1.804 7.92 1.804 2.581 0 5.016-.572 7.304-1.716.44-.205.777-.499 1.012-.88s.352-.807.352-1.276c0-.645-.22-1.247-.66-1.804-.528-.645-1.174-.968-1.936-.968-.411 0-.88.117-1.408.352-1.32.675-2.875 1.012-4.664 1.012-3.022 0-5.471-.895-7.348-2.684-1.848-1.789-2.772-4.415-2.772-7.876 0-2.024.41-3.813 1.232-5.368.821-1.584 1.994-2.801 3.52-3.652 1.525-.88 3.314-1.32 5.368-1.32 1.672 0 3.226.337 4.664 1.012.498.264.997.396 1.496.396.733 0 1.334-.308 1.804-.924.44-.587.66-1.188.66-1.804zm8.929 26.708c1.643.528 3.52.792 5.632.792 1.995 0 3.858-.367 5.588-1.1 1.731-.763 3.11-1.833 4.136-3.212 1.056-1.408 1.584-3.036 1.584-4.884 0-1.965-.381-3.535-1.144-4.708-.762-1.203-1.906-2.141-3.432-2.816-1.496-.704-3.505-1.276-6.028-1.716-2.229-.411-3.872-.939-4.928-1.584-1.026-.645-1.54-1.599-1.54-2.86 0-1.115.499-2.009 1.496-2.684 1.027-.704 2.464-1.056 4.312-1.056 1.086 0 2.303.264 3.652.792 1.379.499 2.45 1.056 3.212 1.672a1.93 1.93 0 0 0 1.188.396c.675 0 1.262-.249 1.76-.748.499-.528.748-1.129.748-1.804 0-.88-.425-1.657-1.276-2.332-1.085-.909-2.449-1.643-4.092-2.2-1.613-.557-3.344-.836-5.192-.836-2.053 0-3.916.367-5.588 1.1-1.672.704-2.992 1.745-3.96 3.124-.968 1.349-1.452 2.948-1.452 4.796 0 5.045 3.212 8.037 9.636 8.976 2.552.381 4.415.953 5.588 1.716 1.174.733 1.76 1.76 1.76 3.08 0 1.085-.601 1.995-1.804 2.728-1.173.733-2.581 1.1-4.224 1.1-1.525 0-2.845-.22-3.96-.66s-2.258-1.144-3.432-2.112a2.33 2.33 0 0 0-1.496-.528 2.39 2.39 0 0 0-1.804.792c-.498.499-.748 1.085-.748 1.76 0 .851.396 1.628 1.188 2.332 1.438 1.261 2.978 2.156 4.62 2.684zm26.254 0c1.643.528 3.52.792 5.632.792 1.995 0 3.858-.367 5.588-1.1 1.731-.763 3.11-1.833 4.136-3.212 1.056-1.408 1.584-3.036 1.584-4.884 0-1.965-.381-3.535-1.144-4.708-.762-1.203-1.906-2.141-3.432-2.816-1.496-.704-3.505-1.276-6.028-1.716-2.229-.411-3.872-.939-4.928-1.584-1.026-.645-1.54-1.599-1.54-2.86 0-1.115.499-2.009 1.496-2.684 1.027-.704 2.464-1.056 4.312-1.056 1.086 0 2.303.264 3.652.792 1.379.499 2.45 1.056 3.212 1.672a1.93 1.93 0 0 0 1.188.396c.675 0 1.262-.249 1.76-.748.499-.528.748-1.129.748-1.804 0-.88-.425-1.657-1.276-2.332-1.085-.909-2.449-1.643-4.092-2.2-1.613-.557-3.344-.836-5.192-.836-2.053 0-3.916.367-5.588 1.1-1.672.704-2.992 1.745-3.96 3.124-.968 1.349-1.452 2.948-1.452 4.796 0 5.045 3.212 8.037 9.636 8.976 2.552.381 4.415.953 5.588 1.716 1.174.733 1.76 1.76 1.76 3.08 0 1.085-.601 1.995-1.804 2.728-1.173.733-2.581 1.1-4.224 1.1-1.525 0-2.845-.22-3.96-.66s-2.258-1.144-3.432-2.112a2.33 2.33 0 0 0-1.496-.528 2.39 2.39 0 0 0-1.804.792c-.498.499-.748 1.085-.748 1.76 0 .851.396 1.628 1.188 2.332 1.438 1.261 2.978 2.156 4.62 2.684z" fill="#fff"/></g></svg>