<svg xmlns="http://www.w3.org/2000/svg" width="33" height="33" fill="none" xmlns:v="https://vecta.io/nano"><path d="M13.647 8.781c.898-2.764 4.808-2.764 5.706 0l.178.547a3 3 0 0 0 2.853 2.073h.575c2.906 0 4.115 3.719 1.763 5.427l-.465.338a3 3 0 0 0-1.09 3.354l.178.547c.898 2.764-2.265 5.062-4.617 3.354l-.465-.338a3 3 0 0 0-3.527 0l-.465.338c-2.351 1.708-5.515-.59-4.616-3.354l.178-.547a3 3 0 0 0-1.09-3.354l-.465-.338c-2.351-1.708-1.143-5.427 1.763-5.427h.575a3 3 0 0 0 2.853-2.073l.178-.547z" fill="#fed049"/><path d="M14.122 8.936c.748-2.303 4.007-2.303 4.755 0l.178.547a3.5 3.5 0 0 0 3.329 2.418h.575c2.422 0 3.429 3.099 1.469 4.523l-.465.338a3.5 3.5 0 0 0-1.271 3.913l.178.547c.748 2.303-1.888 4.219-3.847 2.795l-.465-.338a3.5 3.5 0 0 0-4.114 0l-.466.338c-1.959 1.424-4.595-.492-3.847-2.795l.178-.547a3.5 3.5 0 0 0-1.271-3.913l-.465-.338c-1.959-1.424-.952-4.523 1.469-4.523h.575a3.5 3.5 0 0 0 3.329-2.418l.178-.547z" stroke="#2a1468"/></svg>