<svg xmlns="http://www.w3.org/2000/svg" width="296" height="338" fill="none" xmlns:v="https://vecta.io/nano"><g fill="#54ffb9"><circle cx="129" cy="129" r="129" fill-opacity=".5"/><circle cx="244.5" cy="291.5" r="46.5" fill-opacity=".5"/></g><path d="M227.137 311.56v21.152H110.803V311.56h15.864 84.607 15.863z" fill="#d0d7df"/><path d="M200.698 279.833l10.576 31.728h-84.607l10.576-31.728h21.151 42.304z" fill="#a4b0c0"/><path d="M290.592 105.332v132.197H47.348V105.332c0-4.208 1.671-8.243 4.646-11.218s7.01-4.646 11.217-4.646h211.517c4.207 0 8.242 1.671 11.217 4.646s4.646 7.01 4.646 11.218z" fill="#65ccd8"/><path d="M290.592 237.529v26.44c0 4.207-1.671 8.242-4.646 11.217s-7.01 4.647-11.217 4.647H63.212c-4.207 0-8.242-1.672-11.217-4.647s-4.646-7.01-4.646-11.217v-26.44h243.244z" fill="#d0d7df"/><path d="M248.289 131.771H89.651v84.607h158.638v-84.607z" fill="#f0f1f3"/><path d="M248.289 100.044v31.727H89.651v-31.727a10.61 10.61 0 0 1 3.107-7.469c1.981-1.981 4.667-3.099 7.469-3.107h137.486a10.61 10.61 0 0 1 7.469 3.107c1.982 1.982 3.099 4.667 3.107 7.469z" fill="#fed049"/><g fill="#2a1468"><path d="M73.787 242.818h190.365c1.403 0 2.748-.558 3.74-1.549a5.29 5.29 0 0 0-3.74-9.027H73.787a5.29 5.29 0 0 0-5.288 5.288 5.29 5.29 0 0 0 5.288 5.288zM274.728 84.18a5.29 5.29 0 0 0-5.288 5.288 5.29 5.29 0 0 0 5.288 5.288 10.58 10.58 0 0 1 7.479 3.098c1.983 1.983 3.097 4.673 3.097 7.478v158.637a10.58 10.58 0 0 1-10.576 10.576H158.394a5.29 5.29 0 0 0-5.288 5.288c0 1.403.557 2.748 1.549 3.739a5.29 5.29 0 0 0 3.739 1.549h38.491l9.37 28.111a5.29 5.29 0 0 0 1.925 2.618c.901.65 1.983.999 3.093.999h10.576v10.575H116.091v-10.575h10.576c1.11 0 2.192-.349 3.093-.999a5.29 5.29 0 0 0 1.925-2.618l10.576-31.728a5.28 5.28 0 0 0 .21-2.47c-.126-.828-.448-1.614-.938-2.294s-1.135-1.233-1.881-1.614a5.3 5.3 0 0 0-2.409-.581H63.212c-2.805 0-5.495-1.114-7.478-3.097a10.58 10.58 0 0 1-3.098-7.479V105.332a10.57 10.57 0 0 1 3.098-7.478 10.58 10.58 0 0 1 7.478-3.098 5.29 5.29 0 0 0 5.288-5.288 5.29 5.29 0 0 0-5.288-5.288 21.15 21.15 0 0 0-21.152 21.152v158.637a21.15 21.15 0 0 0 21.151 21.152h66.696l-7.054 21.152h-12.051a5.29 5.29 0 0 0-5.288 5.288v15.863h-5.288a5.29 5.29 0 0 0-5.288 5.288c0 1.403.557 2.748 1.549 3.739s2.338 1.549 3.74 1.549h137.486a5.29 5.29 0 0 0 3.739-1.549c.992-.991 1.549-2.336 1.549-3.739a5.29 5.29 0 0 0-5.288-5.288h-5.288v-15.863a5.29 5.29 0 0 0-5.288-5.288h-12.051l-7.054-21.152h66.696a21.15 21.15 0 0 0 21.152-21.152V105.332a21.15 21.15 0 0 0-21.152-21.152h0zm-126.91 232.668h42.304a5.29 5.29 0 0 0 5.288-5.288 5.29 5.29 0 0 0-5.288-5.288h-42.304a5.29 5.29 0 0 0-5.287 5.288 5.29 5.29 0 0 0 5.287 5.288zm-58.167-95.182a5.29 5.29 0 0 0 3.739-1.549c.992-.992 1.549-2.336 1.549-3.739V100.044a5.29 5.29 0 0 1 5.288-5.288h137.486a5.29 5.29 0 0 1 5.288 5.288v116.334c0 1.403.557 2.748 1.549 3.739a5.29 5.29 0 0 0 9.027-3.739V100.044c0-4.207-1.672-8.242-4.647-11.217s-7.01-4.646-11.217-4.646H100.227c-4.207 0-8.242 1.671-11.217 4.646s-4.646 7.01-4.646 11.217v116.334c0 1.403.557 2.748 1.549 3.739a5.29 5.29 0 0 0 3.739 1.549zm21.152-105.758h5.288a5.29 5.29 0 0 0 5.288-5.288c0-1.403-.557-2.748-1.549-3.739a5.29 5.29 0 0 0-3.739-1.549h-5.288c-1.403 0-2.748.557-3.739 1.549a5.29 5.29 0 0 0 3.739 9.027zm31.727 0a5.29 5.29 0 0 0 5.288-5.288c0-1.403-.557-2.748-1.549-3.739a5.29 5.29 0 0 0-3.739-1.549h-5.288a5.29 5.29 0 0 0-3.739 1.549c-.992.991-1.549 2.336-1.549 3.739a5.29 5.29 0 0 0 5.288 5.288h5.288z"/><path d="M227.137 105.332h-5.288a5.29 5.29 0 0 0-3.739 1.549c-.992.991-1.549 2.336-1.549 3.739a5.29 5.29 0 0 0 5.288 5.288h5.288a5.29 5.29 0 0 0 5.288-5.288c0-1.403-.557-2.748-1.549-3.739a5.29 5.29 0 0 0-3.739-1.549zm5.288 26.439a5.29 5.29 0 0 0-5.288-5.288H110.803a5.29 5.29 0 0 0-5.288 5.288c0 1.403.557 2.748 1.549 3.739a5.29 5.29 0 0 0 3.739 1.549h116.334a5.29 5.29 0 0 0 3.739-1.549c.992-.991 1.549-2.336 1.549-3.739zm-126.167 53.171c.476.49 1.122.766 1.795.766a2.5 2.5 0 0 0 1.794-.766l7.616-7.851c.476-.491.743-1.156.743-1.85s-.267-1.36-.743-1.85l-7.616-7.851c-.478-.477-1.12-.741-1.785-.735a2.5 2.5 0 0 0-1.773.767 2.65 2.65 0 0 0-.743 1.827 2.66 2.66 0 0 0 .712 1.841l5.821 6.001-5.821 6a2.66 2.66 0 0 0-.743 1.851c0 .694.267 1.359.743 1.85zm25.416-13.244c1 0 1.806.159 2.417.477.612.305.917.717.917 1.235 0 .258-.076.488-.229.687-.153.189-.353.283-.6.283-.188 0-.341-.024-.458-.071-.118-.059-.236-.129-.353-.212-.106-.094-.212-.17-.318-.229-.117-.059-.294-.112-.529-.159-.223-.047-.406-.07-.547-.07-.882 0-1.576.276-2.081.829-.494.541-.741 1.252-.741 2.134 0 .847.253 1.553.758 2.117.506.553 1.153.829 1.941.829.576 0 1.005-.07 1.288-.211.07-.036.164-.095.282-.177a2.04 2.04 0 0 1 .353-.212.95.95 0 0 1 .388-.07c.294 0 .523.094.688.282.176.188.264.429.264.723 0 .283-.164.547-.494.794s-.764.447-1.305.6a6.83 6.83 0 0 1-1.729.212c-.905 0-1.705-.212-2.399-.635-.682-.424-1.211-1.006-1.587-1.747-.377-.752-.565-1.587-.565-2.505 0-.952.194-1.799.582-2.54.4-.741.953-1.317 1.658-1.729.706-.423 1.506-.635 2.399-.635zm9.926 0c1.164 0 1.969.359 2.416 1.076.447.706.671 1.688.671 2.946v4.516c0 .306-.1.565-.3.776-.2.2-.453.3-.759.3s-.558-.1-.758-.3c-.2-.211-.3-.47-.3-.776v-4.516c0-.646-.13-1.152-.388-1.517-.247-.376-.688-.564-1.323-.564-.659 0-1.176.2-1.553.6-.364.388-.546.882-.546 1.481v4.516c0 .306-.1.565-.3.776-.2.2-.453.3-.759.3s-.558-.1-.758-.3c-.2-.211-.3-.47-.3-.776v-10.901c0-.306.1-.559.3-.759.2-.212.452-.317.758-.317s.559.105.759.317c.2.2.3.453.3.759v3.898c.317-.423.717-.782 1.199-1.076.494-.306 1.041-.459 1.641-.459zm7.372 8.538c0 .306-.1.565-.3.776-.2.2-.453.3-.758.3a1.03 1.03 0 0 1-.759-.3c-.2-.211-.3-.47-.3-.776v-7.285c0-.306.1-.559.3-.759a1 1 0 0 1 .759-.317 1 1 0 0 1 .758.317c.2.2.3.453.3.759v7.285zm-1.076-9.508c-.4 0-.682-.064-.847-.194s-.247-.358-.247-.688v-.335c0-.329.088-.559.265-.688s.458-.194.847-.194c.411 0 .699.065.864.194s.247.359.247.688v.335c0 .341-.088.576-.265.706-.164.117-.452.176-.864.176zm2.705 9.12c-.106-.141-.159-.317-.159-.529 0-.306.153-.565.459-.776a.93.93 0 0 1 .511-.159c.247 0 .482.112.706.335.352.365.717.635 1.093.812.388.176.853.264 1.394.264.917-.035 1.376-.382 1.376-1.041 0-.341-.159-.599-.476-.776-.306-.176-.788-.353-1.447-.529-.682-.188-1.241-.376-1.676-.564-.423-.189-.794-.471-1.111-.847-.306-.388-.459-.906-.459-1.552 0-.565.159-1.053.477-1.465a3.17 3.17 0 0 1 1.27-.97 4.08 4.08 0 0 1 1.675-.353c.6 0 1.2.112 1.8.336s1.07.552 1.411.987a.98.98 0 0 1 .229.635c0 .271-.111.494-.335.671a.89.89 0 0 1-.564.194c-.259 0-.471-.082-.635-.247-.212-.259-.488-.465-.829-.618-.33-.152-.706-.229-1.129-.229-.894 0-1.341.324-1.341.97 0 .259.082.471.247.635.165.153.37.277.617.371l1.076.317a11.76 11.76 0 0 1 1.588.547 2.72 2.72 0 0 1 1.076.865c.294.388.441.899.441 1.534a2.39 2.39 0 0 1-.512 1.517 3.25 3.25 0 0 1-1.323.97c-.529.224-1.076.336-1.64.336a5.99 5.99 0 0 1-2.17-.388 3.61 3.61 0 0 1-1.64-1.253zm17.524-3.475c-.012.282-.124.512-.336.688a1.12 1.12 0 0 1-.74.265h-5.822c.141.693.465 1.24.971 1.64.505.388 1.076.582 1.711.582.482 0 .858-.041 1.129-.123.27-.094.482-.188.635-.282l.335-.212a1.34 1.34 0 0 1 .6-.159c.247 0 .458.088.635.265s.264.382.264.617c0 .318-.164.606-.494.864-.329.271-.77.5-1.323.688s-1.111.283-1.676.283c-.987 0-1.852-.206-2.593-.618a4.34 4.34 0 0 1-1.693-1.693c-.4-.729-.6-1.547-.6-2.452 0-1.012.212-1.899.635-2.664s.982-1.346 1.676-1.746c.694-.412 1.435-.618 2.223-.618.776 0 1.505.212 2.187.635a4.72 4.72 0 0 1 1.658 1.712c.412.717.618 1.493.618 2.328zm-4.463-2.734c-1.364 0-2.17.641-2.417 1.923h4.622v-.124c-.047-.494-.288-.917-.724-1.27a2.29 2.29 0 0 0-1.481-.529zm8.521 6.597c0 .306-.106.565-.317.776-.2.2-.453.3-.759.3-.294 0-.541-.1-.741-.3-.2-.211-.3-.47-.3-.776v-10.901c0-.306.1-.559.3-.759.212-.212.471-.317.776-.317.294 0 .541.105.741.317.2.2.3.453.3.759v10.901zm11.516-8.538c.999 0 1.805.159 2.416.477.612.305.918.717.918 1.235a1.1 1.1 0 0 1-.23.687.73.73 0 0 1-.599.283c-.189 0-.341-.024-.459-.071a2.75 2.75 0 0 1-.353-.212c-.106-.094-.212-.17-.317-.229-.118-.059-.294-.112-.53-.159-.223-.047-.405-.07-.546-.07-.882 0-1.576.276-2.082.829-.494.541-.741 1.252-.741 2.134 0 .847.253 1.553.759 2.117.505.553 1.152.829 1.94.829.576 0 1.006-.07 1.288-.211.07-.036.164-.095.282-.177a2.04 2.04 0 0 1 .353-.212c.106-.047.235-.07.388-.07.294 0 .523.094.688.282.176.188.264.429.264.723 0 .283-.164.547-.493.794s-.765.447-1.306.6a6.83 6.83 0 0 1-1.729.212c-.905 0-1.705-.212-2.399-.635-.682-.424-1.211-1.006-1.587-1.747-.376-.752-.565-1.587-.565-2.505 0-.952.194-1.799.582-2.54a4.35 4.35 0 0 1 1.659-1.729c.705-.423 1.505-.635 2.399-.635zm9.872 0c.353 0 .647.1.882.3.247.2.37.435.37.706 0 .364-.094.641-.282.829a.95.95 0 0 1-.67.265c-.177 0-.377-.042-.6-.124-.035-.012-.118-.035-.247-.07-.118-.036-.247-.053-.388-.053-.306 0-.6.094-.882.282s-.518.476-.706.864c-.176.377-.264.829-.264 1.359v4.18c0 .306-.1.565-.3.776-.2.2-.453.3-.759.3s-.558-.1-.758-.3c-.2-.211-.3-.47-.3-.776v-7.285c0-.306.1-.559.3-.759a1 1 0 0 1 .758-.317 1 1 0 0 1 .759.317c.2.2.3.453.3.759v.229a2.61 2.61 0 0 1 1.164-1.093 3.51 3.51 0 0 1 1.623-.389zm10.816 4.675c-.012.282-.124.512-.336.688a1.12 1.12 0 0 1-.741.265h-5.821c.141.693.465 1.24.97 1.64a2.74 2.74 0 0 0 1.712.582c.482 0 .858-.041 1.129-.123.27-.094.482-.188.635-.282l.335-.212a1.34 1.34 0 0 1 .599-.159c.247 0 .459.088.636.265s.264.382.264.617c0 .318-.165.606-.494.864-.329.271-.77.5-1.323.688s-1.111.283-1.676.283c-.987 0-1.852-.206-2.593-.618a4.34 4.34 0 0 1-1.693-1.693c-.4-.729-.6-1.547-.6-2.452 0-1.012.212-1.899.635-2.664s.982-1.346 1.676-1.746c.694-.412 1.435-.618 2.223-.618.776 0 1.505.212 2.187.635a4.72 4.72 0 0 1 1.658 1.712c.412.717.618 1.493.618 2.328zm-4.463-2.734c-1.365 0-2.17.641-2.417 1.923h4.622v-.124c-.047-.494-.289-.917-.724-1.27s-.929-.529-1.481-.529zm13.935-1.941c.306 0 .559.1.758.3a1.05 1.05 0 0 1 .3.776v7.462c0 .306-.1.565-.3.776-.199.2-.452.3-.758.3s-.559-.1-.759-.3c-.188-.2-.288-.452-.299-.758-.294.341-.694.635-1.2.882a3.61 3.61 0 0 1-1.57.353c-.811 0-1.546-.206-2.205-.618-.659-.423-1.182-1.005-1.57-1.746-.376-.741-.564-1.582-.564-2.523s.188-1.781.564-2.522c.376-.753.888-1.335 1.535-1.747.658-.423 1.382-.635 2.169-.635.565 0 1.094.106 1.588.318.494.2.911.459 1.253.776v-.018c0-.305.099-.558.299-.758.2-.212.453-.318.759-.318zm-3.563 7.85c.764 0 1.387-.276 1.869-.829.483-.564.724-1.27.724-2.117s-.241-1.552-.724-2.116a2.34 2.34 0 0 0-1.869-.847c-.753 0-1.37.282-1.853.847s-.723 1.27-.723 2.116.235 1.553.706 2.117c.482.553 1.105.829 1.87.829zm11.466-.229c.165 0 .312.082.441.247.142.153.212.359.212.617 0 .318-.176.588-.529.812-.341.211-.729.317-1.164.317-.729 0-1.347-.153-1.852-.458-.494-.318-.741-.982-.741-1.994v-4.868h-.812c-.282 0-.517-.094-.705-.283a.96.96 0 0 1-.283-.705c0-.271.094-.494.283-.671.188-.188.423-.282.705-.282h.812v-1.129c0-.305.1-.558.3-.758.211-.212.47-.318.776-.318.294 0 .541.106.741.318a1.03 1.03 0 0 1 .299.758v1.129h1.253c.282 0 .517.094.705.282a.96.96 0 0 1 .283.706.93.93 0 0 1-.283.688c-.188.176-.423.265-.705.265h-1.253v4.78c0 .247.065.429.194.547.13.106.306.159.53.159.094 0 .223-.024.388-.071.141-.059.276-.088.405-.088zm11.048-2.946a.9.9 0 0 1-.335.688 1.12 1.12 0 0 1-.741.265h-5.821c.141.693.465 1.24.97 1.64a2.74 2.74 0 0 0 1.711.582c.483 0 .859-.041 1.129-.123.271-.094.483-.188.635-.282l.336-.212a1.34 1.34 0 0 1 .599-.159c.247 0 .459.088.635.265s.265.382.265.617c0 .318-.165.606-.494.864-.329.271-.77.5-1.323.688s-1.111.283-1.676.283c-.988 0-1.852-.206-2.593-.618a4.34 4.34 0 0 1-1.693-1.693c-.4-.729-.6-1.547-.6-2.452 0-1.012.212-1.899.635-2.664s.982-1.346 1.676-1.746a4.28 4.28 0 0 1 2.222-.618 4.08 4.08 0 0 1 2.188.635c.694.424 1.246.994 1.658 1.712a4.59 4.59 0 0 1 .617 2.328zm-4.463-2.734c-1.364 0-2.169.641-2.416 1.923h4.621v-.124c-.047-.494-.288-.917-.723-1.27s-.929-.529-1.482-.529z"/></g></svg>