<svg width="296" height="338" viewBox="0 0 296 338" fill="none" xmlns="http://www.w3.org/2000/svg">
<circle cx="129" cy="129" r="129" fill="#54FFB9" fill-opacity="0.5"/>
<circle cx="244.5" cy="291.5" r="46.5" fill="#54FFB9" fill-opacity="0.5"/>
<path d="M227.137 311.56V332.712H110.803V311.56H126.667H211.274H227.137Z" fill="#D0D7DF"/>
<path d="M200.698 279.833L211.274 311.561H126.667L137.243 279.833H158.394H200.698Z" fill="#A4B0C0"/>
<path d="M290.592 105.332V237.529H47.3481V105.332C47.3481 101.124 49.0195 97.0892 51.9945 94.1142C54.9696 91.1391 59.0046 89.4678 63.2119 89.4678H274.729C278.936 89.4678 282.971 91.1391 285.946 94.1142C288.921 97.0892 290.592 101.124 290.592 105.332Z" fill="#65CCD8"/>
<path d="M290.592 237.529V263.969C290.592 268.176 288.921 272.211 285.946 275.186C282.971 278.161 278.936 279.833 274.729 279.833H63.2119C59.0046 279.833 54.9696 278.161 51.9945 275.186C49.0195 272.211 47.3481 268.176 47.3481 263.969V237.529H290.592Z" fill="#D0D7DF"/>
<path d="M248.289 131.771H89.6514V216.378H248.289V131.771Z" fill="#F0F1F3"/>
<path d="M248.289 100.044V131.771H89.6514V100.044C89.6597 97.2413 90.7767 94.5562 92.7582 92.5746C94.7397 90.5931 97.4249 89.4761 100.227 89.4678H237.713C240.515 89.4761 243.2 90.5931 245.182 92.5746C247.164 94.5562 248.281 97.2413 248.289 100.044Z" fill="#FED049"/>
<path d="M73.7874 242.818H264.152C265.555 242.818 266.9 242.26 267.892 241.269C268.883 240.277 269.44 238.932 269.44 237.53C269.44 236.127 268.883 234.782 267.892 233.79C266.9 232.799 265.555 232.242 264.152 232.242H73.7874C72.385 232.242 71.04 232.799 70.0483 233.79C69.0566 234.782 68.4995 236.127 68.4995 237.53C68.4995 238.932 69.0566 240.277 70.0483 241.269C71.04 242.26 72.385 242.818 73.7874 242.818Z" fill="#2A1468"/>
<path d="M274.728 84.1802C273.326 84.1802 271.981 84.7373 270.989 85.729C269.998 86.7206 269.44 88.0656 269.44 89.4681C269.44 90.8705 269.998 92.2155 270.989 93.2072C271.981 94.1989 273.326 94.756 274.728 94.756C277.533 94.756 280.223 95.8702 282.207 97.8536C284.19 99.837 285.304 102.527 285.304 105.332V263.969C285.304 266.774 284.19 269.464 282.207 271.448C280.223 273.431 277.533 274.545 274.728 274.545H158.394C156.992 274.545 155.647 275.102 154.655 276.094C153.663 277.086 153.106 278.431 153.106 279.833C153.106 281.236 153.663 282.581 154.655 283.572C155.647 284.564 156.992 285.121 158.394 285.121H196.885L206.255 313.232C206.606 314.285 207.28 315.201 208.18 315.85C209.081 316.5 210.163 316.849 211.273 316.849H221.849V327.424H116.091V316.849H126.667C127.777 316.849 128.859 316.5 129.76 315.85C130.661 315.201 131.334 314.285 131.685 313.232L142.261 281.504C142.526 280.709 142.598 279.863 142.471 279.034C142.345 278.206 142.023 277.42 141.533 276.74C141.043 276.061 140.398 275.507 139.652 275.126C138.906 274.744 138.08 274.545 137.243 274.545H63.2117C60.4068 274.545 57.7168 273.431 55.7335 271.448C53.7501 269.464 52.6359 266.774 52.6359 263.969V105.332C52.6359 102.527 53.7501 99.837 55.7335 97.8536C57.7168 95.8702 60.4068 94.756 63.2117 94.756C64.6142 94.756 65.9592 94.1989 66.9508 93.2072C67.9425 92.2155 68.4996 90.8705 68.4996 89.4681C68.4996 88.0656 67.9425 86.7206 66.9508 85.729C65.9592 84.7373 64.6142 84.1802 63.2117 84.1802C57.602 84.1802 52.2219 86.4086 48.2552 90.3754C44.2885 94.3421 42.0601 99.7221 42.0601 105.332L42.0601 263.969C42.0601 269.579 44.2885 274.959 48.2552 278.926C52.2219 282.893 57.602 285.121 63.2117 285.121H129.908L122.854 306.273H110.803C109.401 306.273 108.056 306.83 107.064 307.821C106.072 308.813 105.515 310.158 105.515 311.561V327.424H100.227C98.8247 327.424 97.4797 327.981 96.488 328.973C95.4963 329.965 94.9392 331.31 94.9392 332.712C94.9392 334.115 95.4963 335.46 96.488 336.451C97.4797 337.443 98.8247 338 100.227 338H237.713C239.115 338 240.46 337.443 241.452 336.451C242.444 335.46 243.001 334.115 243.001 332.712C243.001 331.31 242.444 329.965 241.452 328.973C240.46 327.981 239.115 327.424 237.713 327.424H232.425V311.561C232.425 310.158 231.868 308.813 230.876 307.821C229.885 306.83 228.54 306.273 227.137 306.273H215.086L208.032 285.121H274.728C280.338 285.121 285.718 282.893 289.685 278.926C293.652 274.959 295.88 269.579 295.88 263.969V105.332C295.88 99.7221 293.652 94.3421 289.685 90.3754C285.718 86.4086 280.338 84.1802 274.728 84.1802V84.1802Z" fill="#2A1468"/>
<path d="M147.818 316.848H190.122C191.524 316.848 192.869 316.291 193.861 315.3C194.853 314.308 195.41 312.963 195.41 311.56C195.41 310.158 194.853 308.813 193.861 307.821C192.869 306.83 191.524 306.272 190.122 306.272H147.818C146.416 306.272 145.071 306.83 144.079 307.821C143.088 308.813 142.531 310.158 142.531 311.56C142.531 312.963 143.088 314.308 144.079 315.3C145.071 316.291 146.416 316.848 147.818 316.848Z" fill="#2A1468"/>
<path d="M89.6512 221.666C91.0536 221.666 92.3986 221.109 93.3903 220.117C94.382 219.126 94.9391 217.781 94.9391 216.378V100.044C94.9391 98.6415 95.4962 97.2965 96.4879 96.3048C97.4796 95.3131 98.8246 94.756 100.227 94.756H237.713C239.115 94.756 240.46 95.3131 241.452 96.3048C242.444 97.2965 243.001 98.6415 243.001 100.044V216.378C243.001 217.781 243.558 219.126 244.55 220.117C245.541 221.109 246.886 221.666 248.289 221.666C249.691 221.666 251.036 221.109 252.028 220.117C253.019 219.126 253.577 217.781 253.577 216.378V100.044C253.577 95.8366 251.905 91.8016 248.93 88.8266C245.955 85.8515 241.92 84.1802 237.713 84.1802H100.227C96.0197 84.1802 91.9847 85.8515 89.0097 88.8266C86.0346 91.8016 84.3633 95.8366 84.3633 100.044V216.378C84.3633 217.781 84.9204 219.126 85.9121 220.117C86.9038 221.109 88.2488 221.666 89.6512 221.666Z" fill="#2A1468"/>
<path d="M110.803 115.908H116.091C117.493 115.908 118.838 115.35 119.83 114.359C120.822 113.367 121.379 112.022 121.379 110.62C121.379 109.217 120.822 107.872 119.83 106.881C118.838 105.889 117.493 105.332 116.091 105.332H110.803C109.4 105.332 108.055 105.889 107.064 106.881C106.072 107.872 105.515 109.217 105.515 110.62C105.515 112.022 106.072 113.367 107.064 114.359C108.055 115.35 109.4 115.908 110.803 115.908Z" fill="#2A1468"/>
<path d="M142.53 115.908C143.933 115.908 145.278 115.35 146.269 114.359C147.261 113.367 147.818 112.022 147.818 110.62C147.818 109.217 147.261 107.872 146.269 106.881C145.278 105.889 143.933 105.332 142.53 105.332H137.242C135.84 105.332 134.495 105.889 133.503 106.881C132.511 107.872 131.954 109.217 131.954 110.62C131.954 112.022 132.511 113.367 133.503 114.359C134.495 115.35 135.84 115.908 137.242 115.908H142.53Z" fill="#2A1468"/>
<path d="M227.137 105.332H221.849C220.447 105.332 219.102 105.889 218.11 106.881C217.118 107.872 216.561 109.217 216.561 110.62C216.561 112.022 217.118 113.367 218.11 114.359C219.102 115.35 220.447 115.908 221.849 115.908H227.137C228.54 115.908 229.885 115.35 230.876 114.359C231.868 113.367 232.425 112.022 232.425 110.62C232.425 109.217 231.868 107.872 230.876 106.881C229.885 105.889 228.54 105.332 227.137 105.332Z" fill="#2A1468"/>
<path d="M232.425 131.771C232.425 130.369 231.868 129.024 230.876 128.032C229.884 127.041 228.539 126.483 227.137 126.483H110.803C109.4 126.483 108.055 127.041 107.064 128.032C106.072 129.024 105.515 130.369 105.515 131.771C105.515 133.174 106.072 134.519 107.064 135.51C108.055 136.502 109.4 137.059 110.803 137.059H227.137C228.539 137.059 229.884 136.502 230.876 135.51C231.868 134.519 232.425 133.174 232.425 131.771Z" fill="#2A1468"/>
<path d="M106.258 184.942C106.734 185.432 107.38 185.708 108.053 185.708C108.726 185.708 109.371 185.432 109.847 184.942L117.463 177.091C117.939 176.6 118.206 175.935 118.206 175.241C118.206 174.547 117.939 173.881 117.463 173.391L109.847 165.54C109.369 165.063 108.727 164.799 108.062 164.805C107.396 164.811 106.76 165.086 106.289 165.572C105.818 166.057 105.551 166.713 105.546 167.399C105.54 168.086 105.796 168.747 106.258 169.24L112.079 175.241L106.258 181.241C105.782 181.732 105.515 182.398 105.515 183.092C105.515 183.786 105.782 184.451 106.258 184.942Z" fill="#2A1468"/>
<path d="M131.674 171.698C132.674 171.698 133.48 171.857 134.091 172.175C134.703 172.48 135.008 172.892 135.008 173.41C135.008 173.668 134.932 173.898 134.779 174.097C134.626 174.286 134.426 174.38 134.179 174.38C133.991 174.38 133.838 174.356 133.721 174.309C133.603 174.25 133.485 174.18 133.368 174.097C133.262 174.003 133.156 173.927 133.05 173.868C132.933 173.809 132.756 173.756 132.521 173.709C132.298 173.662 132.115 173.639 131.974 173.639C131.092 173.639 130.398 173.915 129.893 174.468C129.399 175.009 129.152 175.72 129.152 176.602C129.152 177.449 129.405 178.155 129.91 178.719C130.416 179.272 131.063 179.548 131.851 179.548C132.427 179.548 132.856 179.478 133.139 179.337C133.209 179.301 133.303 179.242 133.421 179.16C133.55 179.066 133.668 178.996 133.774 178.948C133.879 178.901 134.009 178.878 134.162 178.878C134.456 178.878 134.685 178.972 134.85 179.16C135.026 179.348 135.114 179.589 135.114 179.883C135.114 180.166 134.95 180.43 134.62 180.677C134.291 180.924 133.856 181.124 133.315 181.277C132.774 181.418 132.198 181.489 131.586 181.489C130.681 181.489 129.881 181.277 129.187 180.854C128.505 180.43 127.976 179.848 127.6 179.107C127.223 178.355 127.035 177.52 127.035 176.602C127.035 175.65 127.229 174.803 127.617 174.062C128.017 173.321 128.57 172.745 129.275 172.333C129.981 171.91 130.781 171.698 131.674 171.698ZM141.6 171.698C142.764 171.698 143.569 172.057 144.016 172.774C144.463 173.48 144.687 174.462 144.687 175.72V180.236C144.687 180.542 144.587 180.801 144.387 181.012C144.187 181.212 143.934 181.312 143.628 181.312C143.322 181.312 143.07 181.212 142.87 181.012C142.67 180.801 142.57 180.542 142.57 180.236V175.72C142.57 175.074 142.44 174.568 142.182 174.203C141.935 173.827 141.494 173.639 140.859 173.639C140.2 173.639 139.683 173.839 139.306 174.239C138.942 174.627 138.76 175.121 138.76 175.72V180.236C138.76 180.542 138.66 180.801 138.46 181.012C138.26 181.212 138.007 181.312 137.701 181.312C137.395 181.312 137.143 181.212 136.943 181.012C136.743 180.801 136.643 180.542 136.643 180.236V169.335C136.643 169.029 136.743 168.776 136.943 168.576C137.143 168.364 137.395 168.259 137.701 168.259C138.007 168.259 138.26 168.364 138.46 168.576C138.66 168.776 138.76 169.029 138.76 169.335V173.233C139.077 172.81 139.477 172.451 139.959 172.157C140.453 171.851 141 171.698 141.6 171.698ZM148.972 180.236C148.972 180.542 148.872 180.801 148.672 181.012C148.472 181.212 148.219 181.312 147.914 181.312C147.608 181.312 147.355 181.212 147.155 181.012C146.955 180.801 146.855 180.542 146.855 180.236V172.951C146.855 172.645 146.955 172.392 147.155 172.192C147.355 171.981 147.608 171.875 147.914 171.875C148.219 171.875 148.472 171.981 148.672 172.192C148.872 172.392 148.972 172.645 148.972 172.951V180.236ZM147.896 170.728C147.496 170.728 147.214 170.664 147.049 170.534C146.885 170.405 146.802 170.176 146.802 169.846V169.511C146.802 169.182 146.89 168.952 147.067 168.823C147.243 168.694 147.525 168.629 147.914 168.629C148.325 168.629 148.613 168.694 148.778 168.823C148.943 168.952 149.025 169.182 149.025 169.511V169.846C149.025 170.187 148.937 170.422 148.76 170.552C148.596 170.669 148.308 170.728 147.896 170.728ZM150.601 179.848C150.495 179.707 150.442 179.531 150.442 179.319C150.442 179.013 150.595 178.754 150.901 178.543C151.065 178.437 151.236 178.384 151.412 178.384C151.659 178.384 151.894 178.496 152.118 178.719C152.47 179.084 152.835 179.354 153.211 179.531C153.599 179.707 154.064 179.795 154.605 179.795C155.522 179.76 155.981 179.413 155.981 178.754C155.981 178.413 155.822 178.155 155.505 177.978C155.199 177.802 154.717 177.625 154.058 177.449C153.376 177.261 152.817 177.073 152.382 176.885C151.959 176.696 151.588 176.414 151.271 176.038C150.965 175.65 150.812 175.132 150.812 174.486C150.812 173.921 150.971 173.433 151.289 173.021C151.618 172.598 152.041 172.275 152.559 172.051C153.088 171.816 153.646 171.698 154.234 171.698C154.834 171.698 155.434 171.81 156.034 172.034C156.634 172.257 157.104 172.586 157.445 173.021C157.598 173.21 157.674 173.421 157.674 173.656C157.674 173.927 157.563 174.15 157.339 174.327C157.174 174.456 156.986 174.521 156.775 174.521C156.516 174.521 156.304 174.439 156.14 174.274C155.928 174.015 155.652 173.809 155.311 173.656C154.981 173.504 154.605 173.427 154.182 173.427C153.288 173.427 152.841 173.751 152.841 174.397C152.841 174.656 152.923 174.868 153.088 175.032C153.253 175.185 153.458 175.309 153.705 175.403C153.964 175.485 154.323 175.591 154.781 175.72C155.416 175.897 155.946 176.079 156.369 176.267C156.792 176.455 157.151 176.743 157.445 177.132C157.739 177.52 157.886 178.031 157.886 178.666C157.886 179.242 157.715 179.748 157.374 180.183C157.033 180.607 156.592 180.93 156.051 181.153C155.522 181.377 154.975 181.489 154.411 181.489C153.635 181.489 152.911 181.359 152.241 181.101C151.571 180.842 151.024 180.424 150.601 179.848ZM168.125 176.373C168.113 176.655 168.001 176.885 167.789 177.061C167.578 177.237 167.331 177.326 167.049 177.326H161.227C161.368 178.019 161.692 178.566 162.198 178.966C162.703 179.354 163.274 179.548 163.909 179.548C164.391 179.548 164.767 179.507 165.038 179.425C165.308 179.331 165.52 179.237 165.673 179.143C165.837 179.037 165.949 178.966 166.008 178.931C166.219 178.825 166.419 178.772 166.608 178.772C166.855 178.772 167.066 178.86 167.243 179.037C167.419 179.213 167.507 179.419 167.507 179.654C167.507 179.972 167.343 180.26 167.013 180.518C166.684 180.789 166.243 181.018 165.69 181.206C165.138 181.395 164.579 181.489 164.014 181.489C163.027 181.489 162.162 181.283 161.421 180.871C160.692 180.46 160.128 179.895 159.728 179.178C159.328 178.449 159.128 177.631 159.128 176.726C159.128 175.714 159.34 174.827 159.763 174.062C160.187 173.298 160.745 172.716 161.439 172.316C162.133 171.904 162.874 171.698 163.662 171.698C164.438 171.698 165.167 171.91 165.849 172.333C166.543 172.757 167.096 173.327 167.507 174.045C167.919 174.762 168.125 175.538 168.125 176.373ZM163.662 173.639C162.298 173.639 161.492 174.28 161.245 175.562H165.867V175.438C165.82 174.944 165.579 174.521 165.143 174.168C164.708 173.815 164.214 173.639 163.662 173.639ZM172.183 180.236C172.183 180.542 172.077 180.801 171.866 181.012C171.666 181.212 171.413 181.312 171.107 181.312C170.813 181.312 170.566 181.212 170.366 181.012C170.166 180.801 170.066 180.542 170.066 180.236V169.335C170.066 169.029 170.166 168.776 170.366 168.576C170.578 168.364 170.837 168.259 171.142 168.259C171.436 168.259 171.683 168.364 171.883 168.576C172.083 168.776 172.183 169.029 172.183 169.335V180.236ZM183.699 171.698C184.698 171.698 185.504 171.857 186.115 172.175C186.727 172.48 187.033 172.892 187.033 173.41C187.033 173.668 186.956 173.898 186.803 174.097C186.65 174.286 186.451 174.38 186.204 174.38C186.015 174.38 185.863 174.356 185.745 174.309C185.627 174.25 185.51 174.18 185.392 174.097C185.286 174.003 185.18 173.927 185.075 173.868C184.957 173.809 184.781 173.756 184.545 173.709C184.322 173.662 184.14 173.639 183.999 173.639C183.117 173.639 182.423 173.915 181.917 174.468C181.423 175.009 181.176 175.72 181.176 176.602C181.176 177.449 181.429 178.155 181.935 178.719C182.44 179.272 183.087 179.548 183.875 179.548C184.451 179.548 184.881 179.478 185.163 179.337C185.233 179.301 185.327 179.242 185.445 179.16C185.574 179.066 185.692 178.996 185.798 178.948C185.904 178.901 186.033 178.878 186.186 178.878C186.48 178.878 186.709 178.972 186.874 179.16C187.05 179.348 187.138 179.589 187.138 179.883C187.138 180.166 186.974 180.43 186.645 180.677C186.315 180.924 185.88 181.124 185.339 181.277C184.798 181.418 184.222 181.489 183.61 181.489C182.705 181.489 181.905 181.277 181.211 180.854C180.529 180.43 180 179.848 179.624 179.107C179.248 178.355 179.059 177.52 179.059 176.602C179.059 175.65 179.253 174.803 179.641 174.062C180.041 173.321 180.594 172.745 181.3 172.333C182.005 171.91 182.805 171.698 183.699 171.698ZM193.571 171.698C193.924 171.698 194.218 171.798 194.453 171.998C194.7 172.198 194.823 172.433 194.823 172.704C194.823 173.068 194.729 173.345 194.541 173.533C194.353 173.709 194.129 173.798 193.871 173.798C193.694 173.798 193.494 173.756 193.271 173.674C193.236 173.662 193.153 173.639 193.024 173.604C192.906 173.568 192.777 173.551 192.636 173.551C192.33 173.551 192.036 173.645 191.754 173.833C191.472 174.021 191.236 174.309 191.048 174.697C190.872 175.074 190.784 175.526 190.784 176.056V180.236C190.784 180.542 190.684 180.801 190.484 181.012C190.284 181.212 190.031 181.312 189.725 181.312C189.42 181.312 189.167 181.212 188.967 181.012C188.767 180.801 188.667 180.542 188.667 180.236V172.951C188.667 172.645 188.767 172.392 188.967 172.192C189.167 171.981 189.42 171.875 189.725 171.875C190.031 171.875 190.284 171.981 190.484 172.192C190.684 172.392 190.784 172.645 190.784 172.951V173.18C191.054 172.698 191.442 172.333 191.948 172.087C192.454 171.828 192.995 171.698 193.571 171.698ZM204.387 176.373C204.375 176.655 204.263 176.885 204.051 177.061C203.84 177.237 203.593 177.326 203.31 177.326H197.489C197.63 178.019 197.954 178.566 198.459 178.966C198.965 179.354 199.536 179.548 200.171 179.548C200.653 179.548 201.029 179.507 201.3 179.425C201.57 179.331 201.782 179.237 201.935 179.143C202.099 179.037 202.211 178.966 202.27 178.931C202.481 178.825 202.681 178.772 202.869 178.772C203.116 178.772 203.328 178.86 203.505 179.037C203.681 179.213 203.769 179.419 203.769 179.654C203.769 179.972 203.604 180.26 203.275 180.518C202.946 180.789 202.505 181.018 201.952 181.206C201.399 181.395 200.841 181.489 200.276 181.489C199.289 181.489 198.424 181.283 197.683 180.871C196.954 180.46 196.39 179.895 195.99 179.178C195.59 178.449 195.39 177.631 195.39 176.726C195.39 175.714 195.602 174.827 196.025 174.062C196.449 173.298 197.007 172.716 197.701 172.316C198.395 171.904 199.136 171.698 199.924 171.698C200.7 171.698 201.429 171.91 202.111 172.333C202.805 172.757 203.358 173.327 203.769 174.045C204.181 174.762 204.387 175.538 204.387 176.373ZM199.924 173.639C198.559 173.639 197.754 174.28 197.507 175.562H202.129V175.438C202.082 174.944 201.84 174.521 201.405 174.168C200.97 173.815 200.476 173.639 199.924 173.639ZM213.859 171.698C214.165 171.698 214.418 171.798 214.617 171.998C214.817 172.198 214.917 172.457 214.917 172.774V180.236C214.917 180.542 214.817 180.801 214.617 181.012C214.418 181.212 214.165 181.312 213.859 181.312C213.553 181.312 213.3 181.212 213.1 181.012C212.912 180.812 212.812 180.56 212.801 180.254C212.507 180.595 212.107 180.889 211.601 181.136C211.107 181.371 210.584 181.489 210.031 181.489C209.22 181.489 208.485 181.283 207.826 180.871C207.167 180.448 206.644 179.866 206.256 179.125C205.88 178.384 205.692 177.543 205.692 176.602C205.692 175.662 205.88 174.821 206.256 174.08C206.632 173.327 207.144 172.745 207.791 172.333C208.449 171.91 209.173 171.698 209.96 171.698C210.525 171.698 211.054 171.804 211.548 172.016C212.042 172.216 212.459 172.475 212.801 172.792V172.774C212.801 172.469 212.9 172.216 213.1 172.016C213.3 171.804 213.553 171.698 213.859 171.698ZM210.296 179.548C211.06 179.548 211.683 179.272 212.165 178.719C212.648 178.155 212.889 177.449 212.889 176.602C212.889 175.756 212.648 175.05 212.165 174.486C211.683 173.921 211.06 173.639 210.296 173.639C209.543 173.639 208.926 173.921 208.443 174.486C207.961 175.05 207.72 175.756 207.72 176.602C207.72 177.449 207.955 178.155 208.426 178.719C208.908 179.272 209.531 179.548 210.296 179.548ZM221.762 179.319C221.927 179.319 222.074 179.401 222.203 179.566C222.345 179.719 222.415 179.925 222.415 180.183C222.415 180.501 222.239 180.771 221.886 180.995C221.545 181.206 221.157 181.312 220.722 181.312C219.993 181.312 219.375 181.159 218.87 180.854C218.376 180.536 218.129 179.872 218.129 178.86V173.992H217.317C217.035 173.992 216.8 173.898 216.612 173.709C216.423 173.521 216.329 173.286 216.329 173.004C216.329 172.733 216.423 172.51 216.612 172.333C216.8 172.145 217.035 172.051 217.317 172.051H218.129V170.922C218.129 170.617 218.229 170.364 218.429 170.164C218.64 169.952 218.899 169.846 219.205 169.846C219.499 169.846 219.746 169.952 219.946 170.164C220.145 170.364 220.245 170.617 220.245 170.922V172.051H221.498C221.78 172.051 222.015 172.145 222.203 172.333C222.392 172.522 222.486 172.757 222.486 173.039C222.486 173.31 222.392 173.539 222.203 173.727C222.015 173.903 221.78 173.992 221.498 173.992H220.245V178.772C220.245 179.019 220.31 179.201 220.439 179.319C220.569 179.425 220.745 179.478 220.969 179.478C221.063 179.478 221.192 179.454 221.357 179.407C221.498 179.348 221.633 179.319 221.762 179.319ZM232.81 176.373C232.799 176.655 232.687 176.885 232.475 177.061C232.264 177.237 232.017 177.326 231.734 177.326H225.913C226.054 178.019 226.378 178.566 226.883 178.966C227.389 179.354 227.959 179.548 228.594 179.548C229.077 179.548 229.453 179.507 229.723 179.425C229.994 179.331 230.206 179.237 230.358 179.143C230.523 179.037 230.635 178.966 230.694 178.931C230.905 178.825 231.105 178.772 231.293 178.772C231.54 178.772 231.752 178.86 231.928 179.037C232.105 179.213 232.193 179.419 232.193 179.654C232.193 179.972 232.028 180.26 231.699 180.518C231.37 180.789 230.929 181.018 230.376 181.206C229.823 181.395 229.265 181.489 228.7 181.489C227.712 181.489 226.848 181.283 226.107 180.871C225.378 180.46 224.814 179.895 224.414 179.178C224.014 178.449 223.814 177.631 223.814 176.726C223.814 175.714 224.026 174.827 224.449 174.062C224.872 173.298 225.431 172.716 226.125 172.316C226.819 171.904 227.56 171.698 228.347 171.698C229.124 171.698 229.853 171.91 230.535 172.333C231.229 172.757 231.781 173.327 232.193 174.045C232.605 174.762 232.81 175.538 232.81 176.373ZM228.347 173.639C226.983 173.639 226.178 174.28 225.931 175.562H230.552V175.438C230.505 174.944 230.264 174.521 229.829 174.168C229.394 173.815 228.9 173.639 228.347 173.639Z" fill="#2A1468"/>
</svg>
