<svg xmlns="http://www.w3.org/2000/svg" width="325" height="360" fill="none" xmlns:v="https://vecta.io/nano"><g fill="#54ffb9"><circle cx="131.5" cy="131.5" r="131.5" fill-opacity=".5"/><circle cx="231.5" cy="313.5" r="46.5" fill-opacity=".5"/></g><g fill="#2a1468"><path d="M166.93 44a157.93 157.93 0 0 0-145.909 97.495 157.93 157.93 0 0 0 34.24 172.112 157.94 157.94 0 0 0 80.866 43.22c30.636 6.092 62.39 2.963 91.248-8.992a157.92 157.92 0 0 0 70.875-58.171c17.352-25.973 26.613-56.508 26.611-87.744a157.92 157.92 0 0 0-12.022-60.436c-7.937-19.16-19.57-36.569-34.235-51.234s-32.076-26.297-51.236-34.232S187.669 43.999 166.93 44zm0 19.72a138.2 138.2 0 0 1 138.062 131.226A138.2 138.2 0 0 1 180.86 339.42v-43.86h62l-28.26-78.63h-95.2l-28.32 78.63h61.95v43.87a138.2 138.2 0 0 1-81.335-237.655A138.2 138.2 0 0 1 166.93 63.73v-.01zm0 290.57c-84 0-152.36-68.36-152.36-152.37 0-1.79 0-3.57.11-5.38l8.48 5.56a143.27 143.27 0 0 0 129.32 142.89l3.15.31 3 .3v-55.63h-59.6l14.83-41.33c38.161 15.263 77.789 26.566 118.26 33.73l2.73 7.6h-59.6v55.59l3-.3 3.15-.31c19.561-2.013 38.502-8.008 55.659-17.616a144.09 144.09 0 0 0 44.101-38.254l9.9.91a152 152 0 0 1-124.13 64.3zm.01-274.15l-62.45 134.08h1.75 49.25 22.89 51L166.94 80.14z"/><rect x="27" y="134" width="144" height="12" rx="6"/><rect x="46" y="114" width="125" height="12" rx="6"/><rect x="25" y="154" width="144" height="13" rx="6.5"/><rect x="23" y="174" width="144" height="12" rx="6"/></g></svg>