<?xml version="1.0" standalone="no"?>
<!DOCTYPE svg PUBLIC "-//W3C//DTD SVG 20010904//EN"
 "http://www.w3.org/TR/2001/REC-SVG-20010904/DTD/svg10.dtd">
<svg version="1.0" xmlns="http://www.w3.org/2000/svg"
 width="700.000000pt" height="700.000000pt" viewBox="0 0 700.000000 700.000000"
 preserveAspectRatio="xMidYMid meet">
<metadata>
Created by potrace 1.14, written by Peter Selinger 2001-2017
</metadata>
<g transform="translate(0.000000,700.000000) scale(0.100000,-0.100000)"
fill="#000000" stroke="none">
<path d="M3278 6995 c-2 -1 -39 -5 -83 -9 -472 -36 -990 -197 -1415 -438 -175
-99 -210 -125 -229 -169 -43 -94 34 -199 134 -183 20 3 78 30 128 61 201 121
392 212 616 293 88 31 261 83 321 95 8 2 35 8 60 14 25 5 61 13 80 16 19 3 60
10 90 15 177 29 261 35 520 35 309 0 439 -13 689 -66 299 -65 677 -211 910
-351 34 -21 65 -38 67 -38 3 0 46 -28 97 -62 387 -258 699 -570 939 -938 73
-112 88 -137 169 -285 121 -223 259 -619 303 -870 3 -16 8 -39 10 -50 2 -11 7
-45 11 -75 4 -30 9 -62 10 -71 2 -9 6 -52 10 -95 4 -43 9 -90 11 -104 4 -35 4
-398 0 -440 -2 -19 -7 -67 -10 -105 -4 -39 -8 -80 -10 -90 -2 -11 -7 -42 -10
-70 -11 -76 -15 -99 -32 -178 -8 -39 -17 -82 -20 -94 -2 -12 -9 -35 -15 -50
-6 -16 -10 -28 -9 -28 12 0 -82 -276 -142 -420 -366 -865 -1119 -1554 -1994
-1823 -116 -36 -202 -61 -235 -68 -13 -2 -44 -9 -69 -14 -25 -5 -56 -12 -70
-15 -22 -5 -110 -19 -180 -30 -101 -15 -197 -19 -420 -20 -248 0 -356 6 -470
25 -30 5 -68 11 -85 14 -149 22 -396 88 -568 152 -175 65 -440 191 -519 245
-14 11 -29 19 -32 19 -8 0 -212 137 -261 175 -78 61 -189 150 -210 170 -161
150 -274 267 -366 380 -297 363 -508 778 -628 1235 -36 136 -78 369 -87 483
-3 44 -8 92 -10 106 -5 36 -5 399 0 441 3 19 7 67 11 105 3 39 8 81 10 95 5
42 15 104 20 130 3 14 10 52 15 85 26 147 129 482 185 602 8 17 15 34 15 37 0
14 109 231 163 326 157 275 316 479 554 716 116 115 134 147 119 208 -9 38
-54 85 -91 95 -66 18 -103 -2 -216 -113 -277 -272 -476 -540 -663 -891 -120
-224 -264 -618 -310 -845 -3 -14 -7 -36 -11 -50 -8 -36 -43 -247 -50 -300 -27
-214 -28 -669 -1 -830 3 -14 7 -45 10 -70 15 -114 18 -137 26 -170 5 -19 12
-48 14 -65 9 -48 13 -65 36 -155 21 -86 74 -259 89 -295 5 -11 28 -69 51 -129
144 -373 402 -782 679 -1079 82 -88 262 -259 330 -313 13 -10 28 -24 35 -29
47 -43 237 -179 361 -257 221 -140 509 -274 765 -357 91 -29 300 -85 357 -95
14 -3 49 -10 77 -15 62 -13 96 -18 155 -27 25 -3 57 -8 71 -10 163 -25 682
-25 842 1 13 2 46 7 73 10 71 10 87 13 115 18 14 3 43 8 65 12 22 4 67 14 100
22 33 8 68 16 77 18 85 17 345 103 485 161 400 166 781 416 1088 714 369 359
640 760 825 1225 67 167 138 397 166 530 16 77 54 301 60 350 4 33 9 76 11 95
8 70 10 517 3 595 -15 158 -21 210 -25 225 -2 8 -7 35 -10 60 -13 100 -71 348
-107 460 -108 338 -229 597 -413 885 -38 59 -199 280 -219 301 -6 6 -36 41
-66 78 -90 109 -357 364 -485 464 -332 257 -692 452 -1060 573 -176 58 -434
121 -555 135 -25 3 -52 7 -60 9 -8 3 -42 7 -75 10 -33 4 -76 9 -95 12 -36 5
-536 13 -542 8z"/>
<path d="M3318 6355 c-2 -1 -43 -6 -93 -10 -49 -4 -92 -8 -95 -10 -3 -2 -27
-6 -55 -9 -27 -3 -61 -8 -74 -11 -215 -43 -326 -73 -480 -129 -531 -193 -1010
-558 -1343 -1022 -121 -168 -232 -364 -303 -534 -15 -36 -33 -78 -40 -95 -47
-108 -113 -339 -144 -505 -19 -102 -23 -133 -40 -290 -9 -82 -7 -464 3 -520 3
-19 10 -73 16 -120 24 -181 94 -462 149 -595 5 -11 23 -56 41 -100 65 -156
193 -395 273 -508 31 -44 149 -200 162 -213 5 -6 29 -33 51 -60 75 -88 239
-250 324 -319 362 -293 731 -478 1160 -583 130 -32 161 -38 245 -48 28 -3 55
-7 62 -9 58 -19 461 -26 625 -12 988 87 1880 708 2313 1610 124 259 216 553
250 802 3 23 7 51 10 64 12 63 20 213 19 381 0 225 -7 311 -43 505 -14 74 -22
117 -25 130 -2 6 -6 24 -10 40 -24 96 -74 254 -112 351 -58 147 -206 443 -226
452 -5 2 -8 9 -8 15 -1 21 -70 107 -101 126 -20 12 -44 17 -71 15 -69 -6 -111
-46 -122 -115 -6 -40 7 -70 84 -194 170 -275 308 -663 345 -975 4 -30 9 -66
12 -80 10 -44 12 -473 3 -530 -5 -30 -11 -79 -14 -107 -18 -163 -79 -395 -151
-581 -292 -745 -908 -1313 -1676 -1545 -238 -72 -462 -104 -729 -105 -186 0
-241 4 -410 29 -82 12 -85 13 -150 28 -25 5 -61 13 -80 16 -109 19 -382 124
-565 217 -505 257 -925 704 -1173 1248 -46 99 -137 360 -147 420 -3 19 -8 43
-11 52 -12 39 -42 215 -51 303 -10 91 -10 460 0 550 68 602 328 1141 756 1565
48 47 108 103 135 125 27 22 54 45 60 50 46 44 228 169 330 229 57 33 221 116
281 141 119 50 356 127 435 141 14 3 32 7 40 9 8 2 31 7 50 10 19 3 60 10 90
15 203 35 583 35 801 1 524 -84 993 -315 1382 -681 59 -55 101 -71 152 -60 70
16 114 85 100 156 -8 43 -97 134 -249 256 -320 256 -683 437 -1078 539 -46 11
-94 23 -108 25 -14 3 -56 11 -95 19 -38 7 -99 16 -135 20 -36 4 -78 9 -95 12
-35 5 -452 13 -457 8z"/>
<path d="M3290 5529 c-288 -36 -474 -91 -715 -214 -144 -73 -288 -167 -316
-207 -59 -82 -5 -196 98 -205 45 -5 53 -1 128 49 92 63 148 95 258 150 80 39
288 113 348 123 19 3 41 8 49 10 19 5 62 13 130 22 71 10 400 10 465 0 448
-69 834 -281 1113 -610 186 -220 321 -491 382 -767 29 -136 31 -155 35 -350 4
-200 -4 -276 -50 -480 -30 -134 -131 -363 -223 -505 -227 -353 -549 -600 -957
-732 -151 -50 -171 -61 -191 -110 -19 -45 -17 -82 6 -120 38 -64 99 -76 210
-44 232 67 434 165 630 305 110 79 134 99 261 226 296 296 486 667 563 1103
21 120 28 414 13 552 -65 590 -398 1136 -899 1473 -88 59 -93 62 -238 134
-187 93 -404 158 -640 193 -69 10 -387 13 -460 4z"/>
<path d="M3350 4783 c-315 -47 -550 -162 -760 -373 -182 -181 -285 -366 -347
-617 -38 -157 -39 -424 -2 -582 103 -438 426 -792 849 -934 157 -52 227 -62
435 -61 140 1 174 4 270 28 263 67 441 168 631 362 136 137 166 202 129 275
-32 62 -124 88 -184 53 -15 -9 -51 -46 -81 -82 -233 -289 -625 -429 -990 -354
-224 46 -395 143 -553 313 -238 256 -328 631 -231 966 129 447 529 748 989
745 55 -1 111 -4 125 -6 13 -3 42 -8 63 -11 71 -11 171 -46 275 -97 56 -27
102 -53 102 -57 0 -11 70 -41 105 -45 40 -5 101 27 119 62 34 66 21 129 -37
175 -191 153 -484 247 -762 245 -66 -1 -131 -3 -145 -5z"/>
<path d="M1925 4730 c-16 -3 -40 -12 -53 -19 -58 -31 -237 -357 -300 -546 -80
-239 -107 -409 -107 -670 1 -342 59 -593 206 -890 116 -235 217 -375 399 -556
166 -163 208 -184 291 -137 26 14 43 34 54 62 30 74 19 92 -143 254 -174 174
-255 284 -352 477 -94 189 -141 335 -176 545 -13 80 -13 407 0 491 26 166 75
345 122 449 41 90 106 211 141 265 55 82 65 104 68 139 3 35 -15 85 -37 103
-29 24 -83 40 -113 33z"/>
<path d="M3470 4043 c-57 -7 -144 -25 -159 -33 -9 -5 -38 -19 -66 -32 -60 -28
-182 -145 -217 -210 -78 -141 -91 -307 -37 -455 101 -273 405 -419 683 -327
170 57 320 224 356 400 64 309 -156 620 -460 650 -30 3 -59 6 -65 8 -5 1 -21
1 -35 -1z m119 -282 c62 -19 129 -79 160 -146 70 -149 -14 -332 -173 -379
-127 -38 -276 32 -328 154 -28 64 -28 164 1 222 63 130 201 191 340 149z"/>
</g>
</svg>
