<svg xmlns="http://www.w3.org/2000/svg" class="c-logo__icon" viewBox="0 0 150 44.16"><path fill="#2a1468" d="M22.77 0a22 22 0 0 0-12 3.55.83.83 0 0 0-.25 1.16.84.84 0 0 0 1.17.29 20.41 20.41 0 1 1-2.63 2 .85.85 0 1 0-1.14-1.26A22.08 22.08 0 1 0 22.77 0Zm15 12.07a.84.84 0 1 0-1.4.93 16.3 16.3 0 1 1-2.16-2.61.84.84 0 0 0 1.19 0 .85.85 0 0 0 0-1.19 18.14 18.14 0 1 0 2.38 2.88zm-15-2.86a12.83 12.83 0 0 0-7.65 2.52.85.85 0 0 0-.17 1.18.84.84 0 0 0 1.18.18 11.18 11.18 0 1 1 9.36 19.84.84.84 0 0 0 .2 1.66h.2a12.87 12.87 0 0 0-3.12-25.38zm-7.08 21.53a11.19 11.19 0 0 1-2-15.12.848.848 0 1 0-1.37-1 12.86 12.86 0 0 0 2.36 17.4.84.84 0 0 0 .53.19.86.86 0 0 0 .66-.31.85.85 0 0 0-.18-1.16z"/><path fill="#ff6d54" d="M28.49 25.69a.85.85 0 0 0-1.18.19 6.46 6.46 0 1 1-1.43-9 .844.844 0 1 0 1-1.36 8.15 8.15 0 1 0 1.8 11.38.85.85 0 0 0-.19-1.21zm-6.41-7a3.43 3.43 0 1 0 3.43 3.43 3.44 3.44 0 0 0-3.43-3.47zm0 5.17a1.74 1.74 0 1 1 1.74-1.74 1.74 1.74 0 0 1-1.74 1.7z"/><path fill="#ff6d54" d="M68.41 13.037q.687.338.78 1.045.126.706-.343 1.29-.344.46-.906.522-.532.06-1.063-.215-.906-.461-1.906-.738-1-.276-2.125-.276-1.782 0-3.22.584-1.405.552-2.437 1.627-1.031 1.044-1.594 2.488-.53 1.443-.53 3.194 0 1.935.593 3.44.594 1.474 1.625 2.518 1.063 1.014 2.469 1.536 1.437.491 3.094.491 1.062 0 2.062-.246 1.032-.245 1.938-.737.562-.276 1.094-.184.562.061.906.522.531.645.375 1.32-.125.646-.781.983-.782.43-1.72.738-.937.307-1.905.491-.97.184-1.97.184-2.25 0-4.25-.737t-3.562-2.15q-1.563-1.412-2.469-3.47-.875-2.058-.875-4.699 0-2.365.813-4.361.843-2.027 2.343-3.47 1.532-1.475 3.563-2.273 2.031-.83 4.438-.83 1.5 0 2.906.37 1.438.368 2.657 1.043zm12.281 3.839q2.157 0 3.344.922 1.188.89 1.657 2.426.5 1.535.5 3.378v8.139q0 .675-.47 1.136-.437.43-1.093.43-.687 0-1.125-.43-.438-.46-.438-1.136v-8.139q0-1.075-.312-1.965-.281-.891-1.031-1.413-.72-.522-2.032-.522-1.219 0-2.187.522-.938.522-1.47 1.413-.5.89-.5 1.965v8.139q0 .675-.468 1.136-.437.43-1.094.43-.687 0-1.125-.43-.437-.46-.437-1.136V12.147q0-.676.437-1.106.438-.46 1.125-.46.657 0 1.094.46.469.43.469 1.106v8.384l-.563.307q.22-.676.72-1.382.53-.706 1.28-1.29.782-.583 1.72-.921.937-.369 2-.369zM93.473 31.74q0 .676-.437 1.137-.438.43-1.125.43-.657 0-1.125-.43-.438-.46-.438-1.136V18.596q0-.676.438-1.105.468-.461 1.125-.461.687 0 1.125.46.437.43.437 1.106zM91.88 15.004q-.906 0-1.312-.307-.406-.338-.406-1.106V13.1q0-.768.437-1.075.438-.307 1.313-.307.937 0 1.343.338.407.307.407 1.044v.491q0 .799-.438 1.106-.406.307-1.344.307zm4.843 15.785q-.281-.43-.25-.983.032-.584.657-.983.437-.276.906-.215.5.03.937.46.875.953 1.938 1.506 1.094.553 2.625.553.625-.031 1.281-.185.657-.184 1.126-.614.468-.46.468-1.32 0-.768-.5-1.229-.5-.46-1.312-.737-.813-.307-1.75-.553-1-.276-2.032-.614-1-.338-1.812-.86-.813-.553-1.344-1.413-.5-.86-.5-2.119 0-1.443.812-2.488.844-1.044 2.157-1.627 1.344-.584 2.906-.584.906 0 1.906.246 1 .215 1.938.706.938.492 1.625 1.29.313.4.344.952.062.553-.5.983-.375.307-.906.276-.532-.03-.875-.337-.594-.738-1.532-1.137-.937-.43-2.125-.43-.594 0-1.25.185-.625.153-1.063.583-.437.43-.437 1.26 0 .767.5 1.228.531.46 1.375.767.844.308 1.844.553.969.246 1.906.584.969.338 1.72.89.78.523 1.25 1.383.5.829.5 2.119 0 1.505-.907 2.58-.875 1.044-2.25 1.596-1.344.553-2.844.553-1.781 0-3.563-.614-1.75-.645-2.969-2.211zm23.564 2.825q-2.594 0-4.5-1.044-1.907-1.075-2.97-2.918-1.03-1.873-1.03-4.269 0-2.702 1.093-4.606 1.125-1.935 2.907-2.949 1.781-1.044 3.781-1.044 1.531 0 2.907.614 1.375.584 2.437 1.659 1.094 1.044 1.719 2.487.625 1.413.656 3.102-.031.615-.5 1.014-.469.4-1.094.4h-12.156l-.75-2.611h11.75l-.594.552v-.767q-.062-1.075-.718-1.874-.657-.829-1.626-1.259-.968-.46-2.03-.46-.938 0-1.813.306-.844.277-1.532.922-.656.645-1.062 1.72-.375 1.044-.375 2.61 0 1.69.718 2.949.72 1.259 1.938 1.965 1.219.676 2.688.676 1.156 0 1.906-.215.75-.246 1.25-.584.5-.338.875-.645.469-.276.938-.276.562 0 .937.4.375.368.375.89 0 .675-.687 1.228-.844.799-2.344 1.413-1.469.614-3.094.614zm13.907-1.874q0 .676-.469 1.137-.438.43-1.094.43-.656 0-1.125-.43-.437-.46-.437-1.136V12.147q0-.676.468-1.106.47-.46 1.125-.46.688 0 1.094.46.438.43.438 1.106z" aria-label="Chisel"/></svg>