<svg xmlns="http://www.w3.org/2000/svg" class="c-logo__icon" viewBox="0 0 44.16 44.16"><path fill="#2a1468" d="M22.08 0a22 22 0 0 0-12 3.55.83.83 0 0 0-.25 1.16A.84.84 0 0 0 11 5a20.41 20.41 0 1 1-2.63 2 .84.84 0 1 0-1.14-1.26A22.08 22.08 0 1 0 22.08 0Zm15 12.07a.84.84 0 1 0-1.4.93 16.3 16.3 0 1 1-2.16-2.61.84.84 0 0 0 1.19 0 .85.85 0 0 0 0-1.19 18.14 18.14 0 1 0 2.38 2.88Zm-15-2.86a12.83 12.83 0 0 0-7.65 2.52.85.85 0 0 0-.17 1.18.84.84 0 0 0 1.18.18 11.18 11.18 0 1 1 9.36 19.84.84.84 0 0 0 .2 1.66h.2a12.87 12.87 0 0 0-3.12-25.38ZM15 30.74a11.19 11.19 0 0 1-2-15.12.84.84 0 1 0-1.37-1 12.86 12.86 0 0 0 2.36 17.4.84.84 0 0 0 .53.19.86.86 0 0 0 .66-.31.85.85 0 0 0-.18-1.16Z"/><path fill="#ff6d54" d="M28.49 25.69a.85.85 0 0 0-1.18.19 6.46 6.46 0 1 1-1.43-9 .84.84 0 1 0 1-1.36 8.15 8.15 0 1 0 1.8 11.38.85.85 0 0 0-.19-1.21Zm-6.41-7a3.43 3.43 0 1 0 3.43 3.43 3.44 3.44 0 0 0-3.43-3.47Zm0 5.17a1.74 1.74 0 1 1 1.74-1.74 1.74 1.74 0 0 1-1.74 1.7Z"/></svg>