<svg viewBox="0 0 24 24" fill="none" xmlns="http://www.w3.org/2000/svg">
<path d="M23 12C23 18.0751 18.0751 23 12 23C5.92487 23 1 18.0751 1 12C1 5.92487 5.92487 1 12 1C18.0751 1 23 5.92487 23 12Z" fill="url(#paint0_linear_8002_5831)"/>
<path d="M10.6163 22.8932V14.9503H8V11.8199H10.6163V9.36025C10.6163 6.56522 12.2907 5 14.6977 5C15.4302 5 16.2674 5.1118 17 5.2236V8.07453H15.6395C14.3837 8.07453 14.0698 8.74534 14.0698 9.63975V11.8199H16.843L16.3721 14.9503H14.0698V22.7587C13.402 22.9168 12.7096 23 12 23C11.5305 23 11.0686 22.9636 10.6163 22.8932Z" fill="white"/>
<defs>
<linearGradient id="paint0_linear_8002_5831" x1="12.0004" y1="22.2178" x2="12.0007" y2="0.995951" gradientUnits="userSpaceOnUse">
<stop stop-color="#0062aa"/>
<stop offset="1" stop-color="#19AFDD"/>
</linearGradient>
</defs>
</svg>
