<svg viewBox="0 0 24 24" fill="none" xmlns="http://www.w3.org/2000/svg">
<path d="M6.99857 2C4.23715 2 2.00007 4.23856 2.00005 6.99997L2 17C1.99998 19.7614 4.23857 22 7.00001 22H17C19.7614 22 22 19.7614 22 17V7C22 4.23858 19.7634 2 17.0019 2C14.0164 2 10.1956 2 6.99857 2Z" fill="url(#paint0_radial_8002_5833)"/>
<path fill-rule="evenodd" clip-rule="evenodd" d="M12 8.26135C9.93889 8.26135 8.27158 9.93376 8.27158 11.9898C8.27158 14.0458 9.944 15.7182 12 15.7182C14.056 15.7182 15.7284 14.0458 15.7284 11.9898C15.7284 9.93376 14.0611 8.26135 12 8.26135ZM12 14.414C10.66 14.414 9.58088 13.3298 9.58088 11.9949C9.58088 10.6549 10.6651 9.57576 12 9.57576C13.3349 9.57576 14.4191 10.66 14.4191 11.9949C14.4242 13.3298 13.34 14.414 12 14.414Z" fill="white"/>
<path d="M16.7513 8.11815C16.7513 8.59833 16.362 8.9876 15.8819 8.9876C15.4017 8.9876 15.0124 8.59833 15.0124 8.11815C15.0124 7.63796 15.4017 7.24869 15.8819 7.24869C16.362 7.24869 16.7513 7.63796 16.7513 8.11815Z" fill="white"/>
<path fill-rule="evenodd" clip-rule="evenodd" d="M12 4.72727C10.0258 4.72727 9.78034 4.7375 9.00295 4.7733C8.23066 4.8091 7.70387 4.93185 7.23847 5.11086C6.76282 5.29497 6.35367 5.54558 5.94962 5.94962C5.54558 6.35367 5.29498 6.7577 5.11086 7.23846C4.93185 7.69876 4.80911 8.23066 4.7733 9.00294C4.7375 9.78034 4.72727 10.0258 4.72727 12C4.72727 13.9742 4.7375 14.2197 4.7733 14.9971C4.80911 15.7693 4.93185 16.2961 5.11086 16.7615C5.29498 17.2372 5.54558 17.6463 5.94962 18.0504C6.35367 18.4544 6.7577 18.705 7.23847 18.8891C7.69876 19.0682 8.23066 19.1909 9.00295 19.2267C9.78034 19.2625 10.0258 19.2727 12 19.2727C13.9742 19.2727 14.2197 19.2625 14.9971 19.2267C15.7693 19.1909 16.2961 19.0682 16.7615 18.8891C17.2372 18.705 17.6463 18.4544 18.0504 18.0504C18.4544 17.6463 18.705 17.2423 18.8891 16.7615C19.0681 16.3012 19.1909 15.7693 19.2267 14.9971C19.2625 14.2197 19.2727 13.9742 19.2727 12C19.2727 10.0258 19.2625 9.78034 19.2267 9.00294C19.1909 8.23066 19.0681 7.70387 18.8891 7.23846C18.705 6.76282 18.4544 6.35367 18.0504 5.94962C17.6463 5.54558 17.2423 5.29497 16.7615 5.11086C16.3012 4.93185 15.7693 4.8091 14.9971 4.7733C14.2197 4.7375 13.9742 4.72727 12 4.72727ZM12 6.03657C13.9384 6.03657 14.1685 6.04168 14.9357 6.07749C15.6415 6.10817 16.0302 6.2258 16.2859 6.32809C16.6234 6.46107 16.8689 6.61961 17.1196 6.87022C17.3753 7.12594 17.5287 7.36632 17.6617 7.70387C17.7589 7.95959 17.8816 8.34318 17.9123 9.05408C17.9481 9.82125 17.9532 10.0514 17.9532 11.9898C17.9532 13.9281 17.9481 14.1583 17.9123 14.9255C17.8816 15.6312 17.764 16.0199 17.6617 16.2757C17.5287 16.6132 17.3702 16.8587 17.1196 17.1093C16.8638 17.365 16.6234 17.5185 16.2859 17.6514C16.0302 17.7486 15.6466 17.8714 14.9357 17.9021C14.1685 17.9379 13.9384 17.943 12 17.943C10.0616 17.943 9.83148 17.9379 9.06432 17.9021C8.35852 17.8714 7.96982 17.7537 7.7141 17.6514C7.37655 17.5185 7.13106 17.3599 6.88046 17.1093C6.62473 16.8536 6.4713 16.6132 6.33832 16.2757C6.24115 16.0199 6.1184 15.6364 6.08772 14.9255C6.05191 14.1583 6.0468 13.9281 6.0468 11.9898C6.0468 10.0514 6.05191 9.82125 6.08772 9.05408C6.1184 8.3483 6.23603 7.95959 6.33832 7.70387C6.4713 7.36632 6.62984 7.12083 6.88046 6.87022C7.13618 6.6145 7.37655 6.46107 7.7141 6.32809C7.96982 6.23092 8.3534 6.10817 9.06432 6.07749L9.09401 6.0763C9.83776 6.04654 10.0869 6.03657 12 6.03657Z" fill="white"/>
<defs>
<radialGradient id="paint0_radial_8002_5833" cx="0" cy="0" r="1" gradientUnits="userSpaceOnUse" gradientTransform="translate(2.3628 20.1666) rotate(-3.00072) scale(28.9125 24.5805)">
<stop stop-color="#FED576"/>
<stop offset="0.2634" stop-color="#F47133"/>
<stop offset="0.6091" stop-color="#BC3081"/>
<stop offset="1" stop-color="#4C63D2"/>
</radialGradient>
</defs>
</svg>
